<mxfile host="app.diagrams.net" modified="2023-01-04T20:24:23.979Z" agent="5.0 (Windows NT 10.0; Win64; x64) AppleWebKit/537.36 (KHTML, like Gecko) Chrome/108.0.0.0 Safari/537.36" etag="WiEB9h8b2z52bV7eghSH" version="20.8.1" type="github">
  <diagram id="C5RBs43oDa-KdzZeNtuy" name="Page-1">
    <mxGraphModel dx="1050" dy="1718" grid="1" gridSize="10" guides="1" tooltips="1" connect="1" arrows="1" fold="1" page="1" pageScale="1" pageWidth="827" pageHeight="1169" math="0" shadow="0">
      <root>
        <mxCell id="WIyWlLk6GJQsqaUBKTNV-0" />
        <mxCell id="WIyWlLk6GJQsqaUBKTNV-1" parent="WIyWlLk6GJQsqaUBKTNV-0" />
        <mxCell id="WIyWlLk6GJQsqaUBKTNV-2" value="" style="rounded=0;html=1;jettySize=auto;orthogonalLoop=1;fontSize=11;endArrow=block;endFill=0;endSize=8;strokeWidth=1;shadow=0;labelBackgroundColor=none;edgeStyle=orthogonalEdgeStyle;" parent="WIyWlLk6GJQsqaUBKTNV-1" source="WIyWlLk6GJQsqaUBKTNV-3" edge="1">
          <mxGeometry relative="1" as="geometry">
            <mxPoint x="220" y="140" as="targetPoint" />
          </mxGeometry>
        </mxCell>
        <mxCell id="WIyWlLk6GJQsqaUBKTNV-3" value="Preparar macarrão instantâneo para 4 pessoas" style="rounded=1;whiteSpace=wrap;html=1;fontSize=12;glass=0;strokeWidth=1;shadow=0;" parent="WIyWlLk6GJQsqaUBKTNV-1" vertex="1">
          <mxGeometry x="160" y="70" width="120" height="50" as="geometry" />
        </mxCell>
        <mxCell id="lcQeZufUEcImPaPsiYjq-2" value="" style="edgeStyle=orthogonalEdgeStyle;rounded=0;orthogonalLoop=1;jettySize=auto;html=1;" edge="1" parent="WIyWlLk6GJQsqaUBKTNV-1" target="lcQeZufUEcImPaPsiYjq-0">
          <mxGeometry relative="1" as="geometry">
            <mxPoint x="220" y="250" as="sourcePoint" />
          </mxGeometry>
        </mxCell>
        <mxCell id="lcQeZufUEcImPaPsiYjq-6" value="" style="edgeStyle=orthogonalEdgeStyle;rounded=0;orthogonalLoop=1;jettySize=auto;html=1;" edge="1" parent="WIyWlLk6GJQsqaUBKTNV-1" source="lcQeZufUEcImPaPsiYjq-0" target="lcQeZufUEcImPaPsiYjq-4">
          <mxGeometry relative="1" as="geometry" />
        </mxCell>
        <mxCell id="lcQeZufUEcImPaPsiYjq-0" value="&amp;nbsp;Pegar quantidade equivalente a&lt;br style=&quot;border-color: var(--border-color);&quot;&gt;&amp;nbsp;quantidade de pessoas que vão&lt;br style=&quot;border-color: var(--border-color);&quot;&gt;comer macarrão instantâneo" style="whiteSpace=wrap;html=1;aspect=fixed;" vertex="1" parent="WIyWlLk6GJQsqaUBKTNV-1">
          <mxGeometry x="157.5" y="280" width="125" height="125" as="geometry" />
        </mxCell>
        <mxCell id="lcQeZufUEcImPaPsiYjq-3" value="Verificar quantas pessoas vão comer" style="whiteSpace=wrap;html=1;aspect=fixed;" vertex="1" parent="WIyWlLk6GJQsqaUBKTNV-1">
          <mxGeometry x="160" y="140" width="120" height="120" as="geometry" />
        </mxCell>
        <mxCell id="lcQeZufUEcImPaPsiYjq-8" value="" style="edgeStyle=orthogonalEdgeStyle;rounded=0;orthogonalLoop=1;jettySize=auto;html=1;" edge="1" parent="WIyWlLk6GJQsqaUBKTNV-1" source="lcQeZufUEcImPaPsiYjq-4" target="lcQeZufUEcImPaPsiYjq-7">
          <mxGeometry relative="1" as="geometry" />
        </mxCell>
        <mxCell id="lcQeZufUEcImPaPsiYjq-4" value="pegar recipiente de preparo e colocar a quantidade equivalente dentro com o volume de água indicado nas instruções" style="whiteSpace=wrap;html=1;aspect=fixed;" vertex="1" parent="WIyWlLk6GJQsqaUBKTNV-1">
          <mxGeometry x="165" y="450" width="110" height="110" as="geometry" />
        </mxCell>
        <mxCell id="lcQeZufUEcImPaPsiYjq-10" value="" style="edgeStyle=orthogonalEdgeStyle;rounded=0;orthogonalLoop=1;jettySize=auto;html=1;" edge="1" parent="WIyWlLk6GJQsqaUBKTNV-1" source="lcQeZufUEcImPaPsiYjq-7" target="lcQeZufUEcImPaPsiYjq-9">
          <mxGeometry relative="1" as="geometry" />
        </mxCell>
        <mxCell id="lcQeZufUEcImPaPsiYjq-7" value="verificar equipamento para o cozimento e seguir as instruções da embalagem do macarrão instantâneo conforme quantidade utilizada" style="whiteSpace=wrap;html=1;aspect=fixed;" vertex="1" parent="WIyWlLk6GJQsqaUBKTNV-1">
          <mxGeometry x="370" y="431.5" width="147" height="147" as="geometry" />
        </mxCell>
        <mxCell id="lcQeZufUEcImPaPsiYjq-12" value="" style="edgeStyle=orthogonalEdgeStyle;rounded=0;orthogonalLoop=1;jettySize=auto;html=1;" edge="1" parent="WIyWlLk6GJQsqaUBKTNV-1" source="lcQeZufUEcImPaPsiYjq-9" target="lcQeZufUEcImPaPsiYjq-11">
          <mxGeometry relative="1" as="geometry" />
        </mxCell>
        <mxCell id="lcQeZufUEcImPaPsiYjq-9" value="após terminado o cozimento conforme instruções, desligar o equipamento utilizado e procurar recipiente para servir a quantidade de pessoas que irão comer" style="whiteSpace=wrap;html=1;" vertex="1" parent="WIyWlLk6GJQsqaUBKTNV-1">
          <mxGeometry x="610" y="427.5" width="120.5" height="155" as="geometry" />
        </mxCell>
        <mxCell id="lcQeZufUEcImPaPsiYjq-14" value="" style="edgeStyle=orthogonalEdgeStyle;rounded=0;orthogonalLoop=1;jettySize=auto;html=1;" edge="1" parent="WIyWlLk6GJQsqaUBKTNV-1" source="lcQeZufUEcImPaPsiYjq-11" target="lcQeZufUEcImPaPsiYjq-13">
          <mxGeometry relative="1" as="geometry" />
        </mxCell>
        <mxCell id="lcQeZufUEcImPaPsiYjq-11" value="pegar equipamento necessário para servir o macarrão aos que irão comer e servi-los&amp;nbsp;" style="whiteSpace=wrap;html=1;" vertex="1" parent="WIyWlLk6GJQsqaUBKTNV-1">
          <mxGeometry x="610.25" y="240" width="120" height="60" as="geometry" />
        </mxCell>
        <mxCell id="lcQeZufUEcImPaPsiYjq-13" value="fim" style="whiteSpace=wrap;html=1;" vertex="1" parent="WIyWlLk6GJQsqaUBKTNV-1">
          <mxGeometry x="610.25" y="100" width="120" height="60" as="geometry" />
        </mxCell>
        <mxCell id="lcQeZufUEcImPaPsiYjq-16" value="" style="edgeStyle=orthogonalEdgeStyle;rounded=0;orthogonalLoop=1;jettySize=auto;html=1;" edge="1" parent="WIyWlLk6GJQsqaUBKTNV-1" source="lcQeZufUEcImPaPsiYjq-15">
          <mxGeometry relative="1" as="geometry">
            <mxPoint x="220" y="70" as="targetPoint" />
          </mxGeometry>
        </mxCell>
        <mxCell id="lcQeZufUEcImPaPsiYjq-15" value="Início" style="rounded=1;whiteSpace=wrap;html=1;" vertex="1" parent="WIyWlLk6GJQsqaUBKTNV-1">
          <mxGeometry x="160" y="-10" width="120" height="60" as="geometry" />
        </mxCell>
      </root>
    </mxGraphModel>
  </diagram>
</mxfile>
